<?xml version="1.0" encoding="UTF-8"?>
<svg id="Layer_1" data-name="Layer 1" xmlns="http://www.w3.org/2000/svg" width="100%" rotate="-90" viewBox="0 0 1516.4819 336.5">
  <path class="cls-1" d="M0,326.5V6.5H181V326.5H0Z"/>
  <path class="cls-1" d="M689.4941,203v123.5h-176v-110h-86.5v110H250.9941V84h173l-3.5,77,64-84c23-2,43.5-3,61.5-3,107,0,143.5,29.5,143.5,129Z"/>
  <path class="cls-1" d="M1037.4937,72.5l-104,1v10.5h104v99h-104v144.5h-176V183h-33V84h33.5C761.4937,22.5,795.9937,0,897.9937,0c44.5,0,72.5,1,139.5,6V72.5Z"/>
  <path class="cls-1" d="M1057.4814,208c0-89,70.5-128.5,230-128.5,158.5,0,229.0005,39.5,229.0005,128.5,0,89.5-69.5005,128.5-229.0005,128.5s-230-39.5-230-128.5Zm179,21.5h94v-42.5h-94v42.5Z"/>
</svg>