<svg width="337" height="1517" viewBox="0 0 337 1600" fill="none" xmlns="http://www.w3.org/2000/svg">
<g clip-path="url(#clip0_1_3)">
<path d="M326.5 1516.48H6.5L6.5 1335.48H326.5V1516.48Z" fill="black"/>
<path d="M203 826.988H326.5V1002.99H216.5L216.5 1089.49H326.5V1265.49H84L84 1092.49L161 1095.99L77 1031.99C75 1008.99 74 988.488 74 970.488C74 863.488 103.5 826.988 203 826.988Z" fill="black"/>
<path d="M72.5 478.988L73.5 582.988H84V478.988H183L183 582.988H327.5V758.988H183V791.988H84V758.488C22.5 754.988 0 720.488 0 618.488C0 573.988 1 545.988 6 478.988H72.5Z" fill="black"/>
<path d="M208 459C119 459 79.5 388.5 79.5 229C79.5 70.5005 119 0 208 0C297.5 0 336.5 69.5005 336.5 229C336.5 388.5 297 459 208 459ZM229.5 280L229.5 186H187V280H229.5Z" fill="black"/>
</g>
<defs>
<clipPath id="clip0_1_3">
<rect width="1516.48" height="336.5" fill="white" transform="matrix(0 -1 1 0 0 1516.48)"/>
</clipPath>
</defs>
</svg>
