<?xml version="1.0" encoding="UTF-8"?>
<svg id="Layer_1" data-name="Layer 1" xmlns="http://www.w3.org/2000/svg" width="8448.6408" height="1450.6074" viewBox="0 0 8448.6408 1450.6074">
  <g id="program">
    <path class="program" d="M0,601.4314V0H628.6838c227.4163,0,316.6912,62.0226,316.6912,221.7778,0,187.0076-77.0584,248.0905-316.6912,249.9699H338.3052v129.6837H0ZM338.3052,282.8607h224.5971v-81.7571h-224.5971v81.7571Z"/>
    <path class="program" d="M1684.9359,145.6592V422.8815h-333.6065v178.55h-330.7873V145.6592h325.1489l-6.5782,144.7194,119.3466-144.7194h226.4765Z"/>
    <path class="program" d="M1760.1019,378.7139c0-167.2731,132.5029-241.5123,432.2789-241.5123,297.8965,0,430.3994,74.2392,430.3994,241.5123,0,168.2129-130.6234,241.5123-430.3994,241.5123s-432.2789-74.2392-432.2789-241.5123Zm336.4257,40.4087h176.6705v-79.8776h-176.6705v79.8776Z"/>
    <path class="program" d="M3242.0629,145.6592h325.1489v376.8344c0,170.0923-61.0829,227.4163-240.5726,227.4163h-561.0219v-200.1639h470.8071v-32.8908h-255.6074c-215.1997,0-301.6555-55.4445-301.6555-194.5255,0-137.2015,107.13-190.7665,381.5331-190.7665,20.6742,0,44.1676,0,67.661,.9397l118.4059,120.2863h1.8795l-6.5782-107.13Zm-189.8259,231.1752h184.1875v-55.4445h-184.1875v55.4445Z"/>
    <path class="program" d="M4353.7714,145.6592V422.8815h-333.6065v178.55h-330.7873V145.6592h325.1489l-6.5782,144.7194,119.3466-144.7194h226.4765Z"/>
    <path class="program" d="M4962.707,145.6592c212.3805,0,338.3052,76.1187,338.3052,204.8626v250.9097h-327.9681v-76.1187l-124.985,76.1187h-194.5255c-173.8504,0-205.8014-36.6497-205.8014-233.9944h525.3119v-35.71h-523.4324V145.6592h513.0953Zm-153.1771,336.4257l163.5142-7.5179v-45.1074h-163.5142v52.6253Z"/>
    <path class="program" d="M6665.5061,369.3165v232.1149h-330.7873v-206.7421h-134.3823v206.7421h-330.7873v-206.7421h-134.3823v206.7421h-330.7873V145.6592h325.1489l-6.5782,144.7194,120.2863-157.8758c39.4689-3.7589,75.1789-5.6384,106.1902-5.6384,154.1168,0,220.8381,38.5292,242.4521,158.8155l116.5273-153.1771c39.4689-3.7589,75.1789-5.6384,106.1902-5.6384,185.1281,0,250.9097,56.3842,250.9097,242.4521Z"/>
    <path class="program" d="M8030,369.3165v232.1149h-330.7873v-206.7421h-134.3823v206.7421h-330.7873v-206.7421h-134.3823v206.7421h-330.7873V145.6592h325.1489l-6.5782,144.7194,120.2863-157.8758c39.4689-3.7589,75.1789-5.6384,106.1902-5.6384,154.1168,0,220.8381,38.5292,242.4521,158.8155l116.5273-153.1771c39.4689-3.7589,75.1789-5.6384,106.1902-5.6384,185.1281,0,250.9097,56.3842,250.9097,242.4521Z"/>
  </g>
  <g id="info">
    <path class="info" d="M8439.0752,1450.6074h-306.0997v-173.1376h306.0997v173.1376Z"/>
    <path class="info" d="M8320.9398,791.0633h118.1354v168.3553h-105.2218v82.7426h105.2218v168.3548h-231.9662v-165.4852l73.6552,3.348-80.3512-61.2199c-1.9131-22.0009-2.8697-41.6104-2.8697-58.8285,0-102.3526,28.2186-137.2671,123.3964-137.2671Z"/>
    <path class="info" d="M8196.1085,458.1808l.9566,99.4824h10.0439v-99.4824h94.6996v99.4824h138.2231v168.3548h-138.2231v31.5665h-94.6996v-32.0448c-58.8285-3.348-80.3512-36.3493-80.3512-133.9186,0-42.567,.9566-69.3507,5.7394-133.4403h63.6113Z"/>
    <path class="info" d="M8325.7226,439.0618c-85.134,0-122.9182-67.4376-122.9182-220.0092,0-151.615,37.7842-219.0526,122.9182-219.0526,85.6123,0,122.9182,66.481,122.9182,219.0526s-37.7842,220.0092-122.9182,220.0092Zm20.5661-171.2245v-89.9168h-40.6539v89.9168h40.6539Z"/>
  </g>
  <g id="locations">
    <path class="locations" d="M0,1144.6467c0-200.7031,158.7784-297.9326,487.9315-297.9326,327.369,0,486.1475,97.2295,486.1475,297.9326,0,204.2711-157.8864,303.2847-486.1475,303.2847C158.7784,1447.9314,0,1348.9179,0,1144.6467Zm351.4534,50.8448h269.3881v-100.7976H351.4534v100.7976Z"/>
    <path class="locations" d="M1676.0833,997.4645v263.1441h-316.6649v169.4826h-313.9888v-432.6267h308.6368l-6.2441,137.3701,113.2857-137.3701h214.9753Z"/>
    <path class="locations" d="M2326.3492,1174.0832h-222.1114v38.3566l222.1114,1.784v225.6795c-42.8167,4.4601-247.9798,5.3521-252.4399,5.3521-225.6795,0-283.6604-35.6805-283.6604-198.9191v-72.2531h-51.7368v-176.6187h51.7368v-93.6614h313.9888v93.6614h222.1114v176.6187Z"/>
    <path class="locations" d="M2729.5333,1430.0911c-234.5996,0-338.9652-65.117-338.9652-211.4073,0-165.9146,121.3139-237.2757,401.4062-237.2757,296.1486,0,406.7583,70.4691,406.7583,258.684h-487.9315v32.1125l480.7954,1.784v156.1024h-462.0631Zm-18.7323-239.9517h157.8864v-40.1406h-157.8864v40.1406Z"/>
  </g>
  <g>
    <g id="timeline">
      <path class="timeline" d="M3380.45,1435.0508v-196.7454l330.3492-192.1699h-312.0473v-196.7454h851.0381v196.7454l-344.9907,192.1699h344.9907v196.7454h-869.34Z"/>
      <path class="timeline" d="M4652.4264,1435.0508c-240.6699,0-347.736-66.8019-347.736-216.8775,0-170.2076,124.4529-243.4152,411.7926-243.4152,303.8115,0,417.2832,72.2925,417.2832,265.3775h-500.5568v32.9434l493.2361,1.8302v160.1416h-474.0191Zm-19.217-246.1605h161.9718v-41.1793h-161.9718v41.1793Z"/>
      <path class="timeline" d="M5228.9235,954.6261v-105.2359h323.0284v105.2359h-323.0284Zm.9151,480.4247v-442.9059h322.1134v442.9059h-322.1134Z"/>
      <path class="timeline" d="M6246.5,1172.4186h-227.8586v39.3491l227.8586,1.8302v231.519c-43.9245,4.5755-254.3963,5.4906-258.9718,5.4906-231.519,0-291.0001-36.6038-291.0001-204.0661v-74.1227h-53.0755v-181.1888h53.0755v-96.0849h322.1134v96.0849h227.8586v181.1888Z"/>
      <path class="timeline" d="M6660.1157,1435.0508c-240.6699,0-347.736-66.8019-347.736-216.8775,0-170.2076,124.4529-243.4152,411.7926-243.4152,303.8115,0,417.2832,72.2925,417.2832,265.3775h-500.5568v32.9434l493.2361,1.8302v160.1416h-474.0191Zm-19.217-246.1605h161.9718v-41.1793h-161.9718v41.1793Z"/>
      <path class="timeline" d="M8030,1209.0224v226.0284h-322.1134v-201.3208h-158.3114v201.3208h-322.1134v-443.821h316.6228l-6.4057,140.9246,117.1321-153.7359c42.0944-3.6604,79.6132-5.4906,112.5567-5.4906,195.8303,0,262.6322,53.9906,262.6322,236.0944Z"/>
    </g>
  </g>
</svg>