<?xml version="1.0" encoding="UTF-8"?>
<svg id="Layer_1" data-name="Layer 1" xmlns="http://www.w3.org/2000/svg" width="8449.3731" height="1356.9904" viewBox="0 0 8449.3731 1356.9904">
  <g>
    <path class="program" d="M0,724.5504V0H757.3816C1031.3522,0,1138.9026,74.7193,1138.9026,267.178c0,225.2899-92.833,298.877-381.5211,301.1413H407.5596v156.2312H0ZM407.5596,340.7651h270.5743v-98.4936H407.5596v98.4936Z"/>
    <path class="program" d="M2029.8591,175.4771V509.4495h-401.899v215.1009h-398.5027V175.4771h391.7101l-7.9248,174.3449,143.778-174.3449h272.8385Z"/>
    <path class="program" d="M2120.4124,456.2403c0-201.5156,159.6275-290.9523,520.7706-290.9523,358.8789,0,518.5064,89.4367,518.5064,290.9523,0,202.6477-157.3633,290.9523-518.5064,290.9523s-520.7706-89.4367-520.7706-290.9523Zm405.2954,48.6807h212.8367v-96.2293h-212.8367v96.2293Z"/>
    <path class="program" d="M3905.7465,175.4771h391.7101v453.9761c0,204.9119-73.5871,273.9706-289.8202,273.9706h-675.8697v-241.1394h567.1871v-39.6238h-307.9339c-259.2532,0-363.4073-66.7945-363.4073-234.3468,0-165.2881,129.0605-229.8183,459.6367-229.8183,24.9064,0,53.2092,0,81.5119,1.1321l142.6459,144.9101h2.2642l-7.9248-129.0605Zm-228.6862,278.4991h221.8936v-66.7945h-221.8936v66.7945Z"/>
    <path class="program" d="M5245.0304,175.4771V509.4495h-401.899v215.1009h-398.5027V175.4771h391.7101l-7.9248,174.3449,143.778-174.3449h272.8385Z"/>
    <path class="program" d="M5978.6222,175.4771c255.8569,0,407.5596,91.7009,407.5596,246.8v302.2734h-395.1064v-91.7009l-150.5706,91.7009h-234.3468c-209.4403,0-247.9321-44.1523-247.9321-281.8954h632.8495v-43.0202h-630.5853V175.4771h618.1321Zm-184.5339,405.2954l196.9871-9.0569v-54.3413h-196.9871v63.3982Z"/>
    <path class="program" d="M8030,444.9192v279.6312h-398.5027v-249.0642h-161.8917v249.0642h-398.5027v-249.0642h-161.8917v249.0642h-398.5027V175.4771h391.7101l-7.9248,174.3449,144.9101-190.1945c47.5486-4.5284,90.5688-6.7927,127.9284-6.7927,185.666,0,266.0458,46.4165,292.0844,191.3266l140.3816-184.5339c47.5486-4.5284,90.5688-6.7927,127.9284-6.7927,223.0257,0,302.2734,67.9266,302.2734,292.0844Z"/>
  </g>
  <g>
    <path class="timeline" d="M167.6479,1351.6513v-200.7503H0v-140.9523H526.9696v140.9523h-167.6479v200.7503H167.6479Z"/>
    <path class="timeline" d="M575.0176,1071.3483v-61.3997h188.4704v61.3997h-188.4704Zm.5339,280.303v-258.4126h187.9365v258.4126h-187.9365Z"/>
    <path class="timeline" d="M1549.402,1219.7754v131.8759h-187.9365v-117.4603h-76.3492v117.4603h-187.9365v-117.4603h-76.3492v117.4603h-187.9365v-258.9466h184.733l-3.7374,82.2222,68.3405-89.6969c22.4242-2.1356,42.7128-3.2035,60.3319-3.2035,87.5613,0,125.4689,21.8903,137.7489,90.2309l66.2049-87.0274c22.4242-2.1356,42.7128-3.2035,60.3319-3.2035,105.1804,0,142.5541,32.0346,142.5541,137.7489Z"/>
    <path class="timeline" d="M1794.9985,1351.6513c-140.4184,0-202.886-38.9755-202.886-126.5368,0-99.3073,72.6118-142.0202,240.2597-142.0202,177.2583,0,243.4631,42.1789,243.4631,154.834h-292.049v19.2208l287.7777,1.0678v93.4343h-276.5656Zm-11.2121-143.6219h94.5021v-24.026h-94.5021v24.026Z"/>
    <path class="timeline" d="M2131.3545,1351.6513v-341.7027h187.9365v341.7027h-187.9365Z"/>
    <path class="timeline" d="M2394.0324,1071.3483v-61.3997h188.4704v61.3997h-188.4704Zm.5339,280.303v-258.4126h187.9365v258.4126h-187.9365Z"/>
    <path class="timeline" d="M3120.149,1219.7754v131.8759h-187.9365v-117.4603h-92.3665v117.4603h-187.9365v-258.9466h184.733l-3.7374,82.2222,68.3405-89.6969c24.5599-2.1356,46.4502-3.2035,65.671-3.2035,114.2568,0,153.2323,31.5007,153.2323,137.7489Z"/>
    <path class="timeline" d="M3365.7473,1351.6513c-140.4184,0-202.886-38.9755-202.886-126.5368,0-99.3073,72.6118-142.0202,240.2597-142.0202,177.2583,0,243.4631,42.1789,243.4631,154.834h-292.049v19.2208l287.7777,1.0678v93.4343h-276.5656Zm-11.2121-143.6219h94.5021v-24.026h-94.5021v24.026Z"/>
  </g>
  <g>
    <path class="locations" d="M3818.5386,1346.3122v-341.7027h192.2077v202.352l216.2337-1.6017v140.9523h-408.4415Z"/>
    <path class="locations" d="M4260.6113,1219.7754c0-95.0361,75.2814-137.215,245.5988-137.215,169.2496,0,244.531,42.1789,244.531,137.215,0,95.57-74.2135,137.215-244.531,137.215s-245.5988-42.1789-245.5988-137.215Zm191.1399,22.9581h100.3752v-45.3824h-100.3752v45.3824Z"/>
    <path class="locations" d="M4979.787,1346.3122c-120.6638,0-197.0129-38.4415-197.0129-130.2741,0-91.2987,75.2814-128.6724,197.0129-128.6724h276.0317v118.5281h-276.5656v25.6277l276.5656,1.0678v113.7229h-276.0317Z"/>
    <path class="locations" d="M5603.921,1087.3656c120.6638,0,192.2077,43.2467,192.2077,116.3925v142.5541h-186.3347v-43.2467l-71.0101,43.2467h-110.5195c-98.7734,0-116.9264-20.8225-116.9264-132.9437h298.4559v-20.2886h-297.3881v-105.7143h291.5151Zm-87.0274,191.1399l92.9004-4.2713v-25.6277h-92.9004v29.899Z"/>
    <path class="locations" d="M6185.3473,1193.0799h-132.9437v22.9581l132.9437,1.0678v135.0793c-25.6277,2.6696-148.4271,3.2035-151.0966,3.2035-135.0793,0-169.7835-21.3564-169.7835-119.062v-43.2467h-30.9668v-105.7143h30.9668v-56.0606h187.9365v56.0606h132.9437v105.7143Z"/>
    <path class="locations" d="M6245.1417,1066.0092v-61.3997h188.4704v61.3997h-188.4704Zm.5339,280.303v-258.4126h187.9365v258.4126h-187.9365Z"/>
    <path class="locations" d="M6487.001,1219.7754c0-95.0361,75.2814-137.215,245.5988-137.215,169.2496,0,244.531,42.1789,244.531,137.215,0,95.57-74.2135,137.215-244.531,137.215s-245.5988-42.1789-245.5988-137.215Zm191.1399,22.9581h100.3752v-45.3824h-100.3752v45.3824Z"/>
    <path class="locations" d="M7493.42,1214.4363v131.8759h-187.9359v-117.4603h-92.3665v117.4603h-187.9365v-258.9466h184.733l-3.7374,82.2222,68.3405-89.6969c24.5599-2.1356,46.4502-3.2035,65.671-3.2035,114.2568,0,153.2318,31.5007,153.2318,137.7489Z"/>
    <path class="locations" d="M7546.8111,1346.3122v-101.443l264.8196,4.2713v-19.7547h-72.6118c-138.8167,0-206.0894-20.8225-206.0894-64.0692,0-52.3232,72.6118-77.9509,219.9711-77.9509h261.0822v94.5021h-250.404v14.9495h101.9769c112.6551,0,164.4444,24.5599,164.4444,77.417,0,49.6537-51.7893,72.0779-166.0461,72.0779h-317.1428Z"/>
  </g>
  <g>
    <path class="info" d="M8440.4249,1356.9904h-286.3451v-161.964h286.3451v161.964Z"/>
    <path class="info" d="M8329.9135,740.0109h110.5113v157.4903h-98.4311v77.4027h98.4311v157.4898h-216.9959v-154.8053l68.9018,3.1319-75.1656-57.269c-1.7897-20.5811-2.6845-38.925-2.6845-55.032,0-95.7471,26.3974-128.4083,115.4329-128.4083Z"/>
    <path class="info" d="M8213.1384,428.6115l.8948,93.0622h9.3957v-93.0622h88.588v93.0622h129.3027v157.4898h-129.3027v29.5293h-88.588v-29.9768c-55.032-3.1319-75.1656-34.0035-75.1656-125.276,0-39.8199,.8948-64.8751,5.369-124.8286h59.5061Z"/>
    <path class="info" d="M8334.3877,410.7263c-79.6397,0-114.9855-63.0854-114.9855-205.8106,0-141.8303,35.3457-204.9157,114.9855-204.9157,80.0872,0,114.9855,62.1906,114.9855,204.9157s-35.3457,205.8106-114.9855,205.8106Zm19.2388-160.1743v-84.1139h-38.0302v84.1139h38.0302Z"/>
  </g>
    <rect class="cls-1" x="0" y="0" width="8030" height="903.4238"/>
  <rect class="cls-1" x="0" y="1009.9486" width="3646.5841" height="341.7027"/>
  <rect class="cls-1" x="3818.5386" y="1004.6095" width="4211.4614" height="341.7027"/>
  <rect class="cls-1" x="7620.3231" y="527.9403" width="1356.9904" height="301.1098" transform="translate(7620.3231 8977.3135) rotate(-90)"/>
</svg>