<?xml version="1.0" encoding="UTF-8"?>
<svg id="Layer_1" data-name="Layer 1" xmlns="http://www.w3.org/2000/svg" width="100%" viewBox="0 0 3943.9766 330">
  <defs>
    <style>
      .cls-1 {
        fill: #231f20;
      }
    </style>
  </defs>
  <path class="cls-1" d="M0,320V0H180V189.5l202.5-1.5v132H0Z"/>
  <path class="cls-1" d="M413.9951,201.5c0-89,70.5-128.5,230-128.5,158.5,0,229,39.5,229,128.5,0,89.5-69.5,128.5-229,128.5s-230-39.5-230-128.5Zm179,21.5h94v-42.5h-94v42.5Z"/>
  <path class="cls-1" d="M1087.4937,320c-113,0-184.5-36-184.5-122,0-85.5,70.5-120.5,184.5-120.5h258.5v111h-259v24l259,1v106.5h-258.5Z"/>
  <path class="cls-1" d="M1671.9863,77.5c113,0,180,40.5,180,109v133.5h-174.5v-40.5l-66.4995,40.5h-103.5c-92.5,0-109.5-19.5-109.5-124.5h279.4995v-19h-278.4995V77.5h272.9995Zm-81.4995,179l86.9995-4v-24h-86.9995v28Z"/>
  <path class="cls-1" d="M2216.4844,176.5h-124.5v21.5l124.5,1v126.5c-24,2.5-139,3-141.5,3-126.5,0-159-20-159-111.5v-40.5h-29V77.5h29V25h176v52.5h124.5v99Z"/>
  <path class="cls-1" d="M2272.4805,57.5V0h176.5V57.5h-176.5Zm.5,262.5V78h176v242h-176Z"/>
  <path class="cls-1" d="M2498.9785,201.5c0-89,70.5-128.5,230-128.5,158.5,0,229,39.5,229,128.5,0,89.5-69.5,128.5-229,128.5s-230-39.5-230-128.5Zm179,21.5h94v-42.5h-94v42.5Z"/>
  <path class="cls-1" d="M3441.4766,196.5v123.5h-176v-110h-86.5v110h-176V77.5h173l-3.5,77,64-84c23-2,43.5-3,61.5-3,107,0,143.5,29.5,143.5,129Z"/>
  <path class="cls-1" d="M3491.4766,320v-95l248,4v-18.5h-68c-130,0-193-19.5-193-60,0-49,68-73,206-73h244.5v88.5h-234.5v14h95.5c105.5,0,154,23,154,72.5,0,46.5-48.5,67.5-155.5,67.5h-297Z"/>
</svg>