<?xml version="1.0" encoding="UTF-8"?>
<svg id="Layer_1" data-name="Layer 1" xmlns="http://www.w3.org/2000/svg" width="100%" viewBox="0 0 1792.9834 337">
  <defs>
    <style>
      .cls-1 {
        fill: #231f20;
      }
    </style>
  </defs>
  <path class="cls-1" d="M0,167C0,54.5,89,0,273.5,0c183.5,0,272.5,54.5,272.5,167,0,114.5-88.5,170-272.5,170C89,337,0,281.5,0,167Zm197,28.5h151v-56.5H197v56.5Z"/>
  <path class="cls-1" d="M939.4941,84.5V232h-177.5v95h-176V84.5h173l-3.5,77,63.5-77h120.5Z"/>
  <path class="cls-1" d="M1303.9873,183.5h-124.5v21.5l124.5,1v126.5c-24,2.5-139,3-141.5,3-126.5,0-159-20-159-111.5v-40.5h-29V84.5h29V32h176v52.5h124.5v99Z"/>
  <path class="cls-1" d="M1529.9834,327c-131.5,0-190-36.5-190-118.5,0-93,68-133,225-133,166,0,228,39.5,228,145h-273.5v18l269.5,1v87.5h-259Zm-10.5-134.5h88.5v-22.5h-88.5v22.5Z"/>
</svg>