<?xml version="1.0" encoding="UTF-8"?><svg id="Capa_6_copia" xmlns="http://www.w3.org/2000/svg" width="504" height="504" viewBox="0 0 504 504"><defs><style>.cls-1{fill:#d1acd0;}</style></defs><rect class="cls-1" x="280" y="19" width="205" height="259"/><path d="m475,29v239h-185V29h185m20-20h-225v279h225V9h0Z"/><rect class="cls-1" x="19" y="19" width="205" height="151"/><path d="m214,29v131H29V29h185m20-20H9v171h225V9h0Z"/><rect class="cls-1" x="280" y="334" width="205" height="151"/><path d="m475,344v131h-185v-131h185m20-20h-225v171h225v-171h0Z"/><rect class="cls-1" x="19" y="226" width="205" height="259"/><path d="m214,236v239H29v-239h185m20-20H9v279h225V216h0Z"/></svg>