<?xml version="1.0" encoding="UTF-8"?>
<svg id="Capa_6_copia" xmlns="http://www.w3.org/2000/svg" width="488.5043" height="486" viewBox="0 0 488.5043 486">
    <defs>
        <style>.cls-pro-1-active-1{fill:#d1acd0;stroke-width:20px;}</style>
    </defs>
    <rect class="cls-pro-1-active-1" x="271.0043" y="7.5" width="210" height="264"/>
    <path d="m473.5043,15v249h-195V15h195m15-15h-225v279h225V0h0Z"/>
    <rect class="cls-pro-1-active-1" x="10.0043" y="7.5" width="210" height="156"/>
    <path d="m212.5043,15v141H17.5043V15h195m15-15H2.5043v171h225V0h0Z"/>
    <rect class="cls-pro-1-active-1" x="271.0043" y="322.5" width="210" height="156"/>
    <path d="m473.5043,330v141h-195v-141h195m15-15h-225v171h225v-171h0Z"/>
    <rect class="cls-pro-1-active-1" x="10.0043" y="214.5" width="210" height="264"/>
    <path d="m212.5043,222v249H17.5043v-249h195m15-15H2.5043v279h225V207h0Z"/>
</svg>
