<?xml version="1.0" encoding="UTF-8"?><svg id="Capa_6" xmlns="http://www.w3.org/2000/svg" width="504" height="504" viewBox="0 0 504 504"><path d="m309,24v69h-114V24h114m15-15h-144v99h144V9h0Z"/><path d="m138,24v69H24V24h114m15-15H9v99h144V9h0Z"/><path d="m309,150v204h-114v-204h114m15-15h-144v234h144v-234h0Z"/><path d="m138,150v105H24v-105h114m15-15H9v135h144v-135h0Z"/><path d="m309,411v69h-114v-69h114m15-15h-144v99h144v-99h0Z"/><path d="m138,312v168H24v-168h114m15-15H9v198h144v-198h0Z"/><path d="m480,411v69h-114v-69h114m15-15h-144v99h144v-99h0Z"/><path d="m480,249v105h-114v-105h114m15-15h-144v135h144v-135h0Z"/><path d="m480,24v168h-114V24h114m15-15h-144v198h144V9h0Z"/></svg>