<?xml version="1.0" encoding="UTF-8"?>
<svg id="Layer_1" data-name="Layer 1" xmlns="http://www.w3.org/2000/svg" width="100%" viewBox="0 0 4272.4741 399">
  <path class="cls-1" d="M0,320V0H334.5c121,0,168.5,33,168.5,118,0,99.5-41,132-168.5,133H180v69H0ZM180,150.5h119.5v-43.5h-119.5v43.5Z"/>
  <path class="cls-1" d="M896.4937,77.5V225h-177.5v95h-176V77.5h173l-3.5,77,63.5-77h120.5Z"/>
  <path class="cls-1" d="M936.4868,201.5c0-89,70.5-128.5,230-128.5,158.5,0,229,39.5,229,128.5,0,89.5-69.5,128.5-229,128.5s-230-39.5-230-128.5Zm179,21.5h94v-42.5h-94v42.5Z"/>
  <path class="cls-1" d="M1724.9849,77.5h173v200.5c0,90.5-32.5,121-128,121h-298.4995v-106.5h250.4995v-17.5h-135.9995c-114.5,0-160.5-29.5-160.5-103.5,0-73,57-101.5,203-101.5,11,0,23.4995,0,35.9995,.5l63,64h1l-3.5-57Zm-100.9995,123h97.9995v-29.5h-97.9995v29.5Z"/>
  <path class="cls-1" d="M2316.4849,77.5V225h-177.5v95h-176V77.5h173l-3.5,77,63.5-77h120.5Z"/>
  <path class="cls-1" d="M2640.478,77.5c113,0,180,40.5,180,109v133.5h-174.5v-40.5l-66.5,40.5h-103.5c-92.5,0-109.5-19.5-109.5-124.5h279.5v-19h-278.5V77.5h273Zm-81.5,179l87-4v-24h-87v28Z"/>
  <path class="cls-1" d="M3546.4761,196.5v123.5h-176v-110h-71.5v110h-176v-110h-71.5v110h-176V77.5h173l-3.5,77,64-84c21-2,40-3,56.5-3,82,0,117.5,20.5,129,84.5l62-81.5c21-2,40-3,56.5-3,98.5,0,133.5,30,133.5,129Z"/>
  <path class="cls-1" d="M4272.4741,196.5v123.5h-176v-110h-71.5v110h-176v-110h-71.5v110h-176V77.5h173l-3.5,77,64-84c21-2,40-3,56.5-3,82,0,117.5,20.5,129,84.5l62-81.5c21-2,40-3,56.5-3,98.5,0,133.5,30,133.5,129Z"/>
</svg>