<?xml version="1.0" encoding="UTF-8"?><svg id="Capa_8_copia_5" xmlns="http://www.w3.org/2000/svg" width="488.5043" height="486.7128" viewBox="0 0 488.5043 486.7128"><defs><style>.cls-1{fill:#d1acd0;}.cls-2{fill:#e2c0dd;}.cls-3{fill:#fff;stroke:#000;stroke-miterlimit:10;stroke-width:15px;}</style></defs><polygon class="cls-1" points="17.2562 352.6895 307.516 224.6338 473.7523 349.3105 183.493 477.3662 17.2562 352.6895"/><path d="m306.5272,233.2672l152.4727,114.3545-274.5185,121.1111-152.4727-114.3545,274.5185-121.1111m1.9771-17.2672L2.5043,351l180,135,306-135-180-135h0Z"/><polygon class="cls-1" points="17.099 288.8135 307.3588 160.7583 473.5951 285.4346 183.3353 413.4902 17.099 288.8135"/><path d="m306.3696,169.3917l152.4727,114.3545-274.5185,121.1111L31.851,290.5028l274.5185-121.1111m1.9771-17.2672L2.3466,287.1245l180,135,306-135-180-135h0Z"/><polygon class="cls-1" points="17.099 227.4019 307.3588 99.3467 473.5951 224.0239 183.3353 352.0791 17.099 227.4019"/><path d="m306.3696,107.98l152.4727,114.3545-274.5185,121.1111L31.8511,229.0911l274.5185-121.1111m1.9771-17.2672L2.3467,225.7128l180,135,306-135-180-135h0Z"/><polygon class="cls-2" points="182.3935 296.5721 407.5043 197.2585 416.5043 108 380.5042 80.6552 308.3935 26.5721 2.3935 161.5721 182.3935 296.5721"/><polyline class="cls-3" points="398.5043 189 336.0043 144.5 408.0043 108.5"/><path d="m306.4164,43.8393l65.0527,48.7895,29.2674,22.2309-7.2801,72.2016-209.0857,92.2437L31.8979,164.9504,306.4164,43.8393m1.9771-17.2672L2.3935,161.5721l180,135,225.1107-99.3136,9-89.2585-36-27.3449-72.1107-54.083h0Z"/></svg>