<?xml version="1.0" encoding="UTF-8"?>
<svg id="Capa_8_copia_2" xmlns="http://www.w3.org/2000/svg" width="488.5043" height="486.7128" viewBox="0 0 488.5043 486.7128">
    <defs>
        <style>.cls-2-1{fill:none;stroke:#000;stroke-miterlimit:10;stroke-width:15px;}.cls-2-2{fill:#fff;}</style>
    </defs>
    <polygon class="cls-2-2" points="17.099 352.8135 307.3588 224.7583 473.5951 349.4346 183.3353 477.4902 17.099 352.8135"/>
    <path d="m306.3696,233.3917l152.4727,114.3545-274.5185,121.1111L31.851,354.5028l274.5185-121.1111m1.9771-17.2672L2.3466,351.1245l180,135,306-135-180-135h0Z"/>
    <polygon class="cls-2-2" points="17.099 291.4019 307.3588 163.3467 473.5951 288.0239 183.3353 416.0791 17.099 291.4019"/>
    <path d="m306.3696,171.98l152.4727,114.3545-274.5185,121.1111L31.8511,293.0911l274.5185-121.1111m1.9771-17.2672L2.3467,289.7128l180,135,306-135-180-135h0Z"/>
    <polygon class="cls-2-2" points="17.1459 227.2612 307.4056 99.2061 376.0043 150.6553 408.6205 175.4297 400.4799 256.1597 183.3822 351.9385 17.1459 227.2612"/>
    <path d="m306.4164,107.8393l65.0527,48.7895,29.2674,22.2309-7.2801,72.2016-209.0857,92.2437L31.8979,228.9504l274.5185-121.1111m1.9771-17.2672L2.3935,225.5721l180,135,225.1107-99.3136,9-89.2585-36-27.3449-72.1107-54.083h0Z"/>
    <polyline class="cls-2-1" points="398.5043 253 336.0043 208.5 408.0043 172.5"/>
</svg>
