<?xml version="1.0" encoding="UTF-8"?><svg id="Capa_8_copia_3" xmlns="http://www.w3.org/2000/svg" width="488.5043" height="486.7128" viewBox="0 0 488.5043 486.7128"><defs><style>.cls-1{fill:#d1acd0;}.cls-2{fill:#e2c0dd;}.cls-3{fill:#fff;stroke:#000;stroke-miterlimit:10;stroke-width:15px;}</style></defs><polygon class="cls-1" points="17.099 353.4023 307.3588 225.3467 473.5951 350.0234 183.3353 478.0791 17.099 353.4023"/><path d="m306.3696,233.98l152.4727,114.3545-274.5185,121.1111L31.8511,355.0911l274.5185-121.1111m1.9771-17.2672L2.3467,351.7128l180,135,306-135-180-135h0Z"/><polygon class="cls-2" points="182.3935 422.5721 407.5043 323.2585 416.5043 234 380.5042 206.6552 308.3935 152.5721 2.3935 287.5721 182.3935 422.5721"/><polyline class="cls-3" points="398.5043 315 336.0043 270.5 408.0043 234.5"/><path d="m306.4164,169.8393l65.0527,48.7895,29.2674,22.2309-7.2801,72.2016-209.0857,92.2437L31.8979,290.9504l274.5185-121.1111m1.9771-17.2672L2.3935,287.5721l180,135,225.1107-99.3135,9-89.2586-36-27.3449-72.1107-54.083h0Z"/></svg>