<?xml version="1.0" encoding="UTF-8" standalone="no"?>
<!DOCTYPE svg PUBLIC "-//W3C//DTD SVG 1.1//EN" "http://www.w3.org/Graphics/SVG/1.1/DTD/svg11.dtd">
<svg width="100%" height="100%" viewBox="0 0 430 430" version="1.1" xmlns="http://www.w3.org/2000/svg" xmlns:xlink="http://www.w3.org/1999/xlink" xml:space="preserve" xmlns:serif="http://www.serif.com/" style="fill-rule:evenodd;clip-rule:evenodd;stroke-linecap:round;stroke-linejoin:round;stroke-miterlimit:1.5;">
    <g transform="matrix(1,0,0,1,-85,-15.6771)">
        <g transform="matrix(1,0,0,1,-50,50)">
            <g transform="matrix(1,0,0,1,50,-50)">
                <path d="M100,150L100,430L400,430L100,150Z" style="fill:rgb(54,112,81);"/>
            </g>
            <g transform="matrix(1,0,0,1,50,-50)">
                <path d="M100,150L100,200L350,430L400,430L100,150Z" style="fill:rgb(60,143,98);"/>
            </g>
            <g transform="matrix(1,0,0,1,50,-50)">
                <path d="M100,150L100,430L400,430L100,150Z" style="fill:none;stroke:black;stroke-width:15px;"/>
            </g>
        </g>
        <g>
            <g transform="matrix(1,0,0,1,50,-50)">
                <path d="M100,150L100,430L400,430L100,150Z" style="fill:rgb(54,112,81);"/>
            </g>
            <g transform="matrix(1,0,0,1,50,-50)">
                <path d="M100,150L100,200L350,430L400,430L100,150Z" style="fill:rgb(60,143,98);"/>
            </g>
            <g transform="matrix(1,0,0,1,50,-50)">
                <path d="M100,150L100,430L400,430L100,150Z" style="fill:none;stroke:black;stroke-width:15px;"/>
            </g>
        </g>
        <g transform="matrix(1,0,0,1,50,-50)">
            <g transform="matrix(1,0,0,1,50,-50)">
                <path d="M100,150L100,430L400,430L100,150Z" style="fill:rgb(60,143,98);"/>
            </g>
            <g transform="matrix(1,0,0,1,50,-50)">
                <path d="M100,150L100,200L350,430L400,430L100,150Z" style="fill:rgb(60,143,98);"/>
            </g>
            <g transform="matrix(1,0,0,1,50,-50)">
                <path d="M100,150L100,430L400,430L100,150Z" style="fill:none;stroke:black;stroke-width:15px;"/>
            </g>
        </g>
    </g>
</svg>
