<?xml version="1.0" encoding="UTF-8"?>
<svg id="Layer_1" data-name="Layer 1" xmlns="http://www.w3.org/2000/svg" width="100%" viewBox="0 0 3414.9775 320">
  <defs>
    <style>
      .cls-1 {
        fill: #231f20;
      }
    </style>
  </defs>
  <path class="cls-1" d="M157,320V132H0V0H493.5V132h-157v188H157Z"/>
  <path class="cls-1" d="M538.4966,57.5V0h176.5V57.5h-176.5Zm.5,262.5V78h176v242h-176Z"/>
  <path class="cls-1" d="M1450.9946,196.5v123.5h-176v-110h-71.5v110h-176v-110h-71.5v110h-176V77.5h173l-3.5,77,64-84c21-2,40-3,56.5-3,82,0,117.5,20.5,129,84.5l62-81.5c21-2,40-3,56.5-3,98.5,0,133.5,30,133.5,129Z"/>
  <path class="cls-1" d="M1680.9922,320c-131.5,0-190-36.5-190-118.5,0-93,68-133,225-133,166,0,228,39.5,228,145h-273.5v18l269.5,1v87.5h-259Zm-10.5-134.5h88.5v-22.5h-88.5v22.5Z"/>
  <path class="cls-1" d="M1995.9854,320V0h176V320h-176Z"/>
  <path class="cls-1" d="M2241.9795,57.5V0h176.5V57.5h-176.5Zm.5,262.5V78h176v242h-176Z"/>
  <path class="cls-1" d="M2921.9775,196.5v123.5h-176v-110h-86.5v110h-176V77.5h173l-3.5,77,64-84c23-2,43.5-3,61.5-3,107,0,143.5,29.5,143.5,129Z"/>
  <path class="cls-1" d="M3151.9775,320c-131.5,0-190-36.5-190-118.5,0-93,68-133,225-133,166,0,228,39.5,228,145h-273.5v18l269.5,1v87.5h-259Zm-10.5-134.5h88.5v-22.5h-88.5v22.5Z"/>
</svg>