<?xml version="1.0" encoding="UTF-8"?>
<svg id="Layer_1" data-name="Layer 1" xmlns="http://www.w3.org/2000/svg" width="100%" viewBox="0 0 2540.4746 328.5">
  <path class="cls-1" d="M0,320v-107.5L180.5,107.5H10V0H475V107.5l-188.5,105h188.5v107.5H0Z"/>
  <path class="cls-1" d="M694.9971,320c-131.5,0-190-36.5-190-118.5,0-93,68-133,225-133,166,0,228,39.5,228,145h-273.5v18l269.5,1v87.5h-259Zm-10.5-134.5h88.5v-22.5h-88.5v22.5Z"/>
  <path class="cls-1" d="M1009.9902,57.5V0h176.5V57.5h-176.5Zm.5,262.5V78h176v242h-176Z"/>
  <path class="cls-1" d="M1565.9854,176.5h-124.5v21.5l124.5,1v126.5c-24,2.5-139,3-141.5,3-126.5,0-159-20-159-111.5v-40.5h-29V77.5h29V25h176v52.5h124.5v99Z"/>
  <path class="cls-1" d="M1791.9814,320c-131.5,0-190-36.5-190-118.5,0-93,68-133,225-133,166,0,228,39.5,228,145h-273.5v18l269.5,1v87.5h-259Zm-10.5-134.5h88.5v-22.5h-88.5v22.5Z"/>
  <path class="cls-1" d="M2540.4746,196.5v123.5h-176v-110h-86.5v110h-176V77.5h173l-3.5,77,64-84c23-2,43.5-3,61.5-3,107,0,143.5,29.5,143.5,129Z"/>
</svg>