<?xml version="1.0" encoding="UTF-8" standalone="no"?>
<svg width="100%" height="100%" viewBox="0 0 460 360" version="1.1" xmlns="http://www.w3.org/2000/svg" xmlns:xlink="http://www.w3.org/1999/xlink" xml:space="preserve" xmlns:serif="http://www.serif.com/" style="fill-rule:evenodd;clip-rule:evenodd;stroke-linecap:round;stroke-linejoin:round;stroke-miterlimit:1.5;">
    <g transform="matrix(1,0,0,1,-70,-120)">
        <path d="M100,200L200,150L400,200L500,150L500,400L400,450L200,400L100,450L100,200Z" style="fill:rgb(255,198,253);"/>
        <path d="M400,200L400,450L201.496,397.642L161.293,415.418L100,200L200,150L400,200Z" style="fill:rgb(209,172,208);"/>
        <path d="M100,200L200,150L400,200L500,150L500,400L400,450L200,400L100,450L100,200Z" style="fill:none;stroke:black;stroke-width:15px;"/>
        <path d="M200,150L200,400" style="fill:none;stroke:black;stroke-width:15px;"/>
        <path d="M400,200L400,450" style="fill:none;stroke:black;stroke-width:15px;"/>
    </g>
</svg>
